<svg xmlns="http://www.w3.org/2000/svg" viewBox="0 0 800 450" width="800" height="450">
  <defs>
    <linearGradient id="bg4" x1="0" y1="0" x2="1" y2="1">
      <stop offset="0%" stop-color="#052e2b"/>
      <stop offset="100%" stop-color="#0e7490"/>
    </linearGradient>
  </defs>
  <rect width="800" height="450" fill="url(#bg4)"/>
  <!-- route path -->
  <g fill="none" stroke="#5eead4" stroke-width="4" stroke-dasharray="10 8">
    <path d="M120 340 C 220 260, 260 200, 360 210 S 520 260, 620 150"/>
  </g>
  <circle cx="120" cy="340" r="10" fill="#5eead4"/>
  <circle cx="360" cy="210" r="10" fill="#facc15"/>
  <g transform="translate(600,120)">
    <path d="M20 0 C31 0 40 9 40 20 C40 35 20 55 20 55 C20 55 0 35 0 20 C0 9 9 0 20 0 Z" fill="#f87171"/>
    <circle cx="20" cy="20" r="9" fill="#fff"/>
  </g>
  <text x="60" y="400" font-family="Arial, sans-serif" font-size="28" font-weight="bold" fill="#e2e8f0">Gezginim</text>
  <text x="60" y="428" font-family="Arial, sans-serif" font-size="16" fill="#5eead4">Yapay Zeka Destekli Seyahat Asistanı</text>
</svg>
